<svg width="72.375000" height="83.250000" viewBox="0 0 72.375 83.25" fill="none" xmlns="http://www.w3.org/2000/svg" xmlns:xlink="http://www.w3.org/1999/xlink">
	<path d="M39.5 1.25L25.87 1.25Q8.62 1.25 5.62 0.5Q4.87 7.12 1.87 23Q2.37 23.5 6 23.5Q7.16 23.5 7.52 22.96Q7.58 22.86 7.62 22.75Q7.87 22.25 8.25 21.12Q9.62 17.5 10.31 16.06Q11 14.62 12.87 12.37Q13.55 11.55 14.38 10.91Q15.82 9.8 17.68 9.25Q20.62 8.37 25.12 8.37L46.5 8.37L0.5 77.87Q0 78.5 0 80Q0 82.12 1 83.25L65.62 83.25Q65.87 81.25 66.68 78.43Q67.5 75.62 68.25 73.37Q69 71.12 70.31 67.37Q71.62 63.62 72.37 61.5Q71.5 60.75 68.5 60.75Q67.47 60.75 67.03 61.25Q66.94 61.36 66.87 61.5Q66.13 63.67 64.98 65.59Q62.81 69.2 59.18 71.93Q53.62 76.12 44.87 76.12L25 76.12Q23.84 76.12 23.44 75.57Q23.25 75.29 23.25 74.87Q23.25 74.25 24.12 73L69.75 4.12Q69.75 3.12 69.31 1.62Q68.87 0.12 68.5 0Q51 1.25 39.5 1.25Z" fill="#FFA500" fill-opacity="1.000000" fill-rule="evenodd"/>
</svg>
